<?xml version="1.0" encoding="UTF-8" standalone="no"?>
<!DOCTYPE svg PUBLIC "-//W3C//DTD SVG 1.1//EN"
 "http://www.w3.org/Graphics/SVG/1.1/DTD/svg11.dtd">
<!-- Generated by graphviz version 2.44.0 (20200408.0750)
 -->
<!-- Title: dependencies Pages: 1 -->
<svg width="597pt" height="284pt"
 viewBox="0.00 0.00 597.00 284.00" xmlns="http://www.w3.org/2000/svg" xmlns:xlink="http://www.w3.org/1999/xlink">
<g id="graph0" class="graph" transform="scale(1 1) rotate(0) translate(4 280)">
<title>dependencies</title>
<polygon fill="white" stroke="transparent" points="-4,4 -4,-280 593,-280 593,4 -4,4"/>
<text text-anchor="start" x="273.51" y="-42.4" font-family="sans-serif" font-weight="bold" font-size="14.00">Legend</text>
<polygon fill="#ffffb3" stroke="transparent" points="60.5,-10 60.5,-30 80.5,-30 80.5,-10 60.5,-10"/>
<text text-anchor="start" x="84.13" y="-15.4" font-family="sans-serif" font-size="14.00"> &#160;Declarations</text>
<polygon fill="#8dd3c7" stroke="transparent" points="173.5,-10 173.5,-30 193.5,-30 193.5,-10 173.5,-10"/>
<text text-anchor="start" x="197.23" y="-15.4" font-family="sans-serif" font-size="14.00"> &#160;Module</text>
<polygon fill="#80b1d3" stroke="transparent" points="259.5,-10 259.5,-30 279.5,-30 279.5,-10 259.5,-10"/>
<text text-anchor="start" x="283.28" y="-15.4" font-family="sans-serif" font-size="14.00"> &#160;Bootstrap</text>
<polygon fill="#fdb462" stroke="transparent" points="356.5,-10 356.5,-30 376.5,-30 376.5,-10 356.5,-10"/>
<text text-anchor="start" x="380.17" y="-15.4" font-family="sans-serif" font-size="14.00"> &#160;Providers</text>
<polygon fill="#fb8072" stroke="transparent" points="452.5,-10 452.5,-30 472.5,-30 472.5,-10 452.5,-10"/>
<text text-anchor="start" x="476.23" y="-15.4" font-family="sans-serif" font-size="14.00"> &#160;Exports</text>
<g id="clust1" class="cluster">
<title>cluster_CoreModule</title>
<polygon fill="none" stroke="black" stroke-dasharray="1,5" points="8,-70 8,-268 581,-268 581,-70 8,-70"/>
</g>
<g id="clust8" class="cluster">
<title>cluster_CoreModule_providers</title>
<polygon fill="none" stroke="black" points="353,-78 353,-130 573,-130 573,-78 353,-78"/>
</g>
<g id="clust2" class="cluster">
<title>cluster_CoreModule_declarations</title>
<polygon fill="none" stroke="black" points="16,-78 16,-130 345,-130 345,-78 16,-78"/>
</g>
<g id="clust6" class="cluster">
<title>cluster_CoreModule_exports</title>
<polygon fill="none" stroke="black" points="98,-208 98,-260 434,-260 434,-208 98,-208"/>
</g>
<!-- AppBarComponent -->
<g id="node1" class="node">
<title>AppBarComponent</title>
<polygon fill="#ffffb3" stroke="black" points="336.65,-122 211.35,-122 211.35,-86 336.65,-86 336.65,-122"/>
<text text-anchor="middle" x="274" y="-99.8" font-family="Times,serif" font-size="14.00">AppBarComponent</text>
</g>
<!-- CoreModule -->
<g id="node3" class="node">
<title>CoreModule</title>
<polygon fill="#8dd3c7" stroke="black" points="317.26,-187 314.26,-191 293.26,-191 290.26,-187 230.74,-187 230.74,-151 317.26,-151 317.26,-187"/>
<text text-anchor="middle" x="274" y="-164.8" font-family="Times,serif" font-size="14.00">CoreModule</text>
</g>
<!-- AppBarComponent&#45;&gt;CoreModule -->
<g id="edge1" class="edge">
<title>AppBarComponent&#45;&gt;CoreModule</title>
<path fill="none" stroke="black" d="M274,-122.11C274,-122.11 274,-140.99 274,-140.99"/>
<polygon fill="black" stroke="black" points="270.5,-140.99 274,-150.99 277.5,-140.99 270.5,-140.99"/>
</g>
<!-- UserEditDialogComponent -->
<g id="node2" class="node">
<title>UserEditDialogComponent</title>
<polygon fill="#ffffb3" stroke="black" points="193.7,-122 24.3,-122 24.3,-86 193.7,-86 193.7,-122"/>
<text text-anchor="middle" x="109" y="-99.8" font-family="Times,serif" font-size="14.00">UserEditDialogComponent</text>
</g>
<!-- UserEditDialogComponent&#45;&gt;CoreModule -->
<g id="edge2" class="edge">
<title>UserEditDialogComponent&#45;&gt;CoreModule</title>
<path fill="none" stroke="black" d="M149.62,-122.11C149.62,-141.34 149.62,-169 149.62,-169 149.62,-169 220.5,-169 220.5,-169"/>
<polygon fill="black" stroke="black" points="220.5,-172.5 230.5,-169 220.5,-165.5 220.5,-172.5"/>
</g>
<!-- AppBarComponent  -->
<g id="node4" class="node">
<title>AppBarComponent </title>
<polygon fill="#fb8072" stroke="black" points="425.65,-252 296.35,-252 296.35,-216 425.65,-216 425.65,-252"/>
<text text-anchor="middle" x="361" y="-229.8" font-family="Times,serif" font-size="14.00">AppBarComponent </text>
</g>
<!-- CoreModule&#45;&gt;AppBarComponent  -->
<g id="edge3" class="edge">
<title>CoreModule&#45;&gt;AppBarComponent </title>
<path fill="none" stroke="black" stroke-dasharray="5,2" d="M306.9,-187.11C306.9,-187.11 306.9,-205.99 306.9,-205.99"/>
<polygon fill="black" stroke="black" points="303.4,-205.99 306.9,-215.99 310.4,-205.99 303.4,-205.99"/>
</g>
<!-- UserEditDialogComponent  -->
<g id="node5" class="node">
<title>UserEditDialogComponent </title>
<polygon fill="#fb8072" stroke="black" points="278.2,-252 105.8,-252 105.8,-216 278.2,-216 278.2,-252"/>
<text text-anchor="middle" x="192" y="-229.8" font-family="Times,serif" font-size="14.00">UserEditDialogComponent </text>
</g>
<!-- CoreModule&#45;&gt;UserEditDialogComponent  -->
<g id="edge4" class="edge">
<title>CoreModule&#45;&gt;UserEditDialogComponent </title>
<path fill="none" stroke="black" stroke-dasharray="5,2" d="M254.48,-187.11C254.48,-187.11 254.48,-205.99 254.48,-205.99"/>
<polygon fill="black" stroke="black" points="250.98,-205.99 254.48,-215.99 257.98,-205.99 250.98,-205.99"/>
</g>
<!-- HttpRequestInterceptor -->
<g id="node6" class="node">
<title>HttpRequestInterceptor</title>
<ellipse fill="#fdb462" stroke="black" cx="463" cy="-104" rx="101.84" ry="18"/>
<text text-anchor="middle" x="463" y="-99.8" font-family="Times,serif" font-size="14.00">HttpRequestInterceptor</text>
</g>
<!-- HttpRequestInterceptor&#45;&gt;CoreModule -->
<g id="edge5" class="edge">
<title>HttpRequestInterceptor&#45;&gt;CoreModule</title>
<path fill="none" stroke="black" d="M393.45,-117.15C393.45,-136.15 393.45,-169 393.45,-169 393.45,-169 327.46,-169 327.46,-169"/>
<polygon fill="black" stroke="black" points="327.46,-165.5 317.46,-169 327.46,-172.5 327.46,-165.5"/>
</g>
</g>
</svg>
